<svg xmlns="http://www.w3.org/2000/svg" xmlns:xlink="http://www.w3.org/1999/xlink" width="57px" height="56px"> <path fill-rule="evenodd" fill="rgb(255, 255, 255)" d="M41.021,40.807 C40.796,41.036 40.499,41.150 40.202,41.150 C39.913,41.150 39.624,41.043 39.401,40.826 L30.387,32.044 C29.935,31.603 29.927,30.881 30.370,30.433 C30.812,29.982 31.537,29.974 31.989,30.415 L41.004,39.196 C41.455,39.636 41.463,40.358 41.021,40.807 ZM23.889,25.387 L15.257,16.795 C14.809,16.350 14.809,15.629 15.257,15.183 C15.703,14.739 16.429,14.739 16.876,15.183 L25.509,23.775 C25.956,24.220 25.956,24.941 25.509,25.387 C25.285,25.610 24.992,25.721 24.699,25.721 C24.406,25.721 24.113,25.610 23.889,25.387 ZM41.012,15.183 C41.459,15.629 41.459,16.350 41.012,16.795 L16.876,40.816 C16.652,41.040 16.359,41.150 16.066,41.150 C15.773,41.150 15.480,41.040 15.256,40.816 C14.809,40.370 14.809,39.650 15.256,39.205 L39.393,15.183 C39.840,14.739 40.565,14.739 41.012,15.183 ZM54.383,38.097 C54.155,38.685 53.492,38.976 52.902,38.749 C52.312,38.523 52.019,37.862 52.247,37.275 C53.396,34.320 53.978,31.199 53.978,28.000 C53.978,13.818 42.385,2.279 28.134,2.279 C13.884,2.279 2.290,13.818 2.290,28.000 C2.290,42.182 13.884,53.721 28.134,53.721 C34.846,53.721 41.207,51.172 46.043,46.544 C46.500,46.108 47.224,46.121 47.662,46.575 C48.101,47.029 48.086,47.751 47.631,48.187 C42.365,53.226 35.441,56.000 28.134,56.000 C12.621,56.000 -0.000,43.439 -0.000,28.000 C-0.000,12.561 12.621,-0.000 28.134,-0.000 C43.648,-0.000 56.269,12.561 56.269,27.999 C56.269,31.480 55.634,34.878 54.383,38.097 Z"></path> </svg>